<svg width="17" height="21" viewBox="0 0 17 21" fill="none" xmlns="http://www.w3.org/2000/svg">
<path opacity="0.55" d="M16.6682 15.9277L15.2228 14.5385V9.15385C15.2228 5.84769 13.3853 3.08 10.1809 2.34769V1.61538C10.1809 0.721539 9.43016 0 8.50019 0C7.57023 0 6.81953 0.721539 6.81953 1.61538V2.34769C3.60387 3.08 1.77755 5.83692 1.77755 9.15385V14.5385L0.332185 15.9277C-0.373692 16.6062 0.119301 17.7692 1.11649 17.7692H15.8727C16.8811 17.7692 17.3741 16.6062 16.6682 15.9277ZM12.9819 15.6154H4.01843V9.15385C4.01843 6.48308 5.7103 4.30769 8.50019 4.30769C11.2901 4.30769 12.9819 6.48308 12.9819 9.15385V15.6154ZM8.50019 21C9.73267 21 10.7411 20.0308 10.7411 18.8462H6.25931C6.25931 19.4174 6.4954 19.9652 6.91565 20.3692C7.3359 20.7731 7.90587 21 8.50019 21Z" fill="#282F39"/>
</svg>
