<svg width="64" height="64" viewBox="0 0 64 64" fill="none" xmlns="http://www.w3.org/2000/svg">
<circle cx="32" cy="32" r="32" fill="#1E6DFB" fill-opacity="0.25"/>
<g clip-path="url(#clip0)">
<path d="M42.4477 33.3045C42.3697 33.1176 42.1878 32.9956 41.9859 32.9956H36.5087V20.4998C36.5087 20.2239 36.2848 20 36.0089 20H28.0115C27.7356 20 27.5117 20.2239 27.5117 20.4998V32.9957H22.0135C21.8116 32.9957 21.6296 33.1177 21.5517 33.3036C21.4747 33.4905 21.5167 33.7055 21.6596 33.8484L31.6313 43.8531C31.7253 43.947 31.8522 44 31.9852 44C32.1181 44 32.2451 43.947 32.3391 43.8541L42.3397 33.8494C42.4827 33.7064 42.5257 33.4915 42.4477 33.3045Z" fill="#1E6DFB"/>
</g>
<defs>
<clipPath id="clip0">
<rect width="24" height="24" fill="white" transform="translate(20 20)"/>
</clipPath>
</defs>
</svg>
