<svg width="15" height="10" viewBox="0 0 15 10" fill="none" xmlns="http://www.w3.org/2000/svg">
<path d="M7.3125 2.28125C8.10807 2.28125 8.77669 2.56055 9.31836 3.11914C9.87695 3.66081 10.1562 4.32943 10.1562 5.125C10.1562 5.90365 9.87695 6.57227 9.31836 7.13086C8.77669 7.67253 8.10807 7.94336 7.3125 7.94336C6.53385 7.94336 5.86523 7.67253 5.30664 7.13086C4.76497 6.57227 4.49414 5.90365 4.49414 5.125C4.49414 4.85417 4.52799 4.5918 4.5957 4.33789C4.81576 4.45638 5.04427 4.51562 5.28125 4.51562C5.67057 4.51562 6.00065 4.38021 6.27148 4.10938C6.55924 3.82161 6.70312 3.48307 6.70312 3.09375C6.70312 2.85677 6.64388 2.62826 6.52539 2.4082C6.7793 2.32357 7.04167 2.28125 7.3125 2.28125ZM14.5488 4.74414C14.5996 4.86263 14.625 4.98958 14.625 5.125C14.625 5.26042 14.5996 5.38737 14.5488 5.50586C13.8379 6.86003 12.8392 7.95182 11.5527 8.78125C10.2663 9.59375 8.85286 10 7.3125 10C6.29688 10 5.3151 9.8138 4.36719 9.44141C3.4362 9.05208 2.60677 8.52734 1.87891 7.86719C1.15104 7.1901 0.55013 6.40299 0.0761719 5.50586C0.0253906 5.38737 0 5.26042 0 5.125C0 4.98958 0.0253906 4.86263 0.0761719 4.74414C0.787109 3.38997 1.78581 2.30664 3.07227 1.49414C4.35872 0.664714 5.77214 0.25 7.3125 0.25C8.85286 0.25 10.2663 0.664714 11.5527 1.49414C12.8392 2.30664 13.8379 3.38997 14.5488 4.74414ZM7.3125 8.78125C8.5651 8.78125 9.72461 8.45964 10.791 7.81641C11.8743 7.15625 12.7292 6.25911 13.3555 5.125C12.7292 3.99089 11.8743 3.10221 10.791 2.45898C9.72461 1.79883 8.5651 1.46875 7.3125 1.46875C6.0599 1.46875 4.89193 1.79883 3.80859 2.45898C2.74219 3.10221 1.89583 3.99089 1.26953 5.125C1.67578 5.86979 2.19206 6.52148 2.81836 7.08008C3.44466 7.62174 4.13867 8.04492 4.90039 8.34961C5.67904 8.63737 6.48307 8.78125 7.3125 8.78125Z" fill="#1DD1A1"/>
</svg>
