<svg width="64" height="64" viewBox="0 0 64 64" fill="none" xmlns="http://www.w3.org/2000/svg">
<circle cx="32" cy="32" r="32" fill="#FFB800" fill-opacity="0.2"/>
<g clip-path="url(#clip0)">
<path d="M46 27.9459C46 30.3134 45.1177 32.4817 43.2233 34.7673C41.5282 36.8125 39.0927 38.8883 36.2718 41.292C35.308 42.1131 34.2157 43.0441 33.0824 44.0357C32.7855 44.2955 32.405 44.4397 32.0098 44.442H32C31.6014 44.442 31.2171 44.2976 30.9176 44.0353C29.7864 43.0462 28.6959 42.1163 27.7337 41.2962L27.7288 41.2926C24.9084 38.8887 22.4718 36.8125 20.7771 34.7673C18.8823 32.4817 18 30.3134 18 27.9459C18 25.6454 18.7889 23.5226 20.2213 21.9689C21.6709 20.3966 23.6597 19.5312 25.822 19.5312C27.4385 19.5312 28.9183 20.0418 30.2216 21.0495C30.8793 21.5583 31.4751 22.1804 32 22.9069L32.0098 22.8939C32.5326 22.1729 33.1252 21.5551 33.7788 21.0495C35.0817 20.0418 36.5621 19.5312 38.178 19.5312C40.3407 19.5312 42.3295 20.3966 43.7787 21.9689C45.2111 23.5226 46 25.6447 46 27.9459Z" fill="#FFB800"/>
<path d="M45.9999 27.9459C45.9999 30.3134 45.1177 32.4817 43.2233 34.7673C41.5282 36.8125 39.0927 38.8883 36.2718 41.292C35.3079 42.1131 34.2156 43.0441 33.0824 44.0357C32.7854 44.2955 32.405 44.4397 32.0098 44.442V22.8939C32.5325 22.1729 33.1251 21.5551 33.7788 21.0495C35.0817 20.0418 36.5621 19.5312 38.1779 19.5312C40.3406 19.5312 42.3295 20.3966 43.7787 21.9689C45.211 23.5226 45.9999 25.6447 45.9999 27.9459Z" fill="#ED8A19"/>
</g>
<defs>
<clipPath id="clip0">
<rect width="28" height="28" fill="white" transform="translate(18 18)"/>
</clipPath>
</defs>
</svg>
