<svg width="41" height="40" viewBox="0 0 41 40" fill="none" xmlns="http://www.w3.org/2000/svg">
<path fill-rule="evenodd" clip-rule="evenodd" d="M28.9803 34.8217C22.6454 38.387 14.4766 37.5914 8.93279 32.3217C3.38901 27.052 2.18052 18.934 5.42034 12.4266L3.16107 10.279C-1.1728 18.0608 0.111376 28.0755 6.86591 34.4961C13.6204 40.9166 23.6873 41.6918 31.2396 36.9692L28.9803 34.8217ZM9.78588 6.91838C16.3225 1.47846 26.0429 1.67618 32.3575 7.67856C38.6721 13.6809 39.362 23.3788 34.2603 30.1827L36.4474 32.2617C42.6832 24.2451 41.941 12.6492 34.4244 5.50417C26.9077 -1.64084 15.2891 -1.79461 7.59869 4.83933L9.78588 6.91838Z" fill="#B8ECFF"/>
</svg>
