<svg width="14" height="10" viewBox="0 0 14 10" fill="none" xmlns="http://www.w3.org/2000/svg">
<path opacity="0.4" fill-rule="evenodd" clip-rule="evenodd" d="M13.9996 0.5046V1.44372C13.9996 1.7224 13.8192 1.94832 13.5967 1.94832H0.402866C0.180369 1.94832 0 1.7224 0 1.44372V0.5046C0 0.225917 0.180369 0 0.402866 0H13.5967C13.8192 0 13.9996 0.225917 13.9996 0.5046ZM14.0001 9.30168H11.292C11.0695 9.30168 10.8891 9.07576 10.8891 8.79708V7.85796C10.8891 7.57928 11.0695 7.35336 11.292 7.35336H13.5973C13.8198 7.35336 14.0001 7.57928 14.0001 7.85796V9.30168ZM5.06934 5.62507H13.5967C13.8192 5.62507 13.9995 5.39916 13.9995 5.12047V4.18136C13.9995 3.90268 13.8192 3.67676 13.5967 3.67676H5.06934C4.84685 3.67676 4.66648 3.90268 4.66648 4.18136V5.12047C4.66648 5.39916 4.84685 5.62507 5.06934 5.62507Z" fill="white"/>
</svg>
