<svg width="64" height="64" viewBox="0 0 64 64" fill="none" xmlns="http://www.w3.org/2000/svg">
<circle cx="32" cy="32" r="32" fill="#41D558" fill-opacity="0.25"/>
<g clip-path="url(#clip0)">
<path d="M36.4503 30.5363C35.1946 29.8423 33.8595 29.3136 32.5377 28.765C31.7711 28.4478 31.0375 28.0777 30.3898 27.5622C29.1142 26.5444 29.3588 24.8921 30.8524 24.2378C31.2754 24.0528 31.7182 23.9933 32.1676 23.9669C33.8992 23.8743 35.5448 24.1916 37.1112 24.945C37.8911 25.3217 38.1488 25.2027 38.4132 24.3898C38.6908 23.5307 38.9221 22.6583 39.1798 21.7925C39.3517 21.2109 39.1402 20.8275 38.5916 20.583C37.587 20.1402 36.556 19.823 35.4721 19.6511C34.0578 19.433 34.0578 19.4264 34.0512 18.0055C34.0446 16.0029 34.0446 16.0029 32.0354 16.0029C31.7446 16.0029 31.4538 15.9963 31.163 16.0029C30.2245 16.0294 30.0659 16.1946 30.0395 17.1397C30.0263 17.5627 30.0395 17.9857 30.0329 18.4152C30.0263 19.671 30.0197 19.6511 28.8168 20.0873C25.9088 21.1448 24.1112 23.1275 23.9195 26.2998C23.7477 29.1087 25.2149 31.0055 27.5214 32.3868C28.9424 33.2394 30.5153 33.7416 32.0222 34.4092C32.6104 34.6669 33.1722 34.9643 33.6613 35.3741C35.1086 36.5703 34.8443 38.5597 33.1259 39.3131C32.2073 39.7162 31.2357 39.8154 30.2378 39.6898C28.6979 39.4981 27.224 39.095 25.8361 38.3746C25.0232 37.9516 24.7853 38.064 24.5077 38.943C24.2698 39.703 24.0583 40.4697 23.8468 41.2363C23.5626 42.2673 23.6684 42.5119 24.6531 42.9943C25.9088 43.6024 27.2505 43.913 28.6185 44.1311C29.6892 44.3029 29.7223 44.3492 29.7355 45.4595C29.7421 45.9618 29.7421 46.4707 29.7487 46.973C29.7553 47.6075 30.0593 47.9776 30.7136 47.9908C31.4538 48.004 32.2007 48.004 32.9409 47.9842C33.5489 47.9709 33.8595 47.6405 33.8595 47.0259C33.8595 46.3385 33.8926 45.6446 33.8661 44.9572C33.8331 44.2567 34.1371 43.8998 34.8112 43.7147C36.3644 43.2917 37.6862 42.459 38.704 41.2165C41.5326 37.7798 40.4554 32.7503 36.4503 30.5363Z" fill="#41D458"/>
</g>
<defs>
<clipPath id="clip0">
<rect width="32" height="32" fill="white" transform="translate(16 16)"/>
</clipPath>
</defs>
</svg>
