<svg width="13" height="14" viewBox="0 0 13 14" fill="none" xmlns="http://www.w3.org/2000/svg">
<path d="M2.03125 2.68164C3.26693 1.44596 4.75651 0.828125 6.5 0.828125C8.24349 0.828125 9.72461 1.44596 10.9434 2.68164C12.179 3.90039 12.7969 5.38151 12.7969 7.125C12.7969 8.86849 12.179 10.3581 10.9434 11.5938C9.72461 12.8125 8.24349 13.4219 6.5 13.4219C4.75651 13.4219 3.26693 12.8125 2.03125 11.5938C0.8125 10.3581 0.203125 8.86849 0.203125 7.125C0.203125 5.38151 0.8125 3.90039 2.03125 2.68164ZM2.89453 10.7305C3.89323 11.7122 5.09505 12.2031 6.5 12.2031C7.90495 12.2031 9.09831 11.7122 10.0801 10.7305C11.0788 9.73177 11.5781 8.52995 11.5781 7.125C11.5781 5.72005 11.0788 4.52669 10.0801 3.54492C9.09831 2.54622 7.90495 2.04688 6.5 2.04688C5.09505 2.04688 3.89323 2.54622 2.89453 3.54492C1.91276 4.52669 1.42188 5.72005 1.42188 7.125C1.42188 8.52995 1.91276 9.73177 2.89453 10.7305ZM5.6875 4.17969C5.6875 3.97656 5.78906 3.875 5.99219 3.875H7.00781C7.21094 3.875 7.3125 3.97656 7.3125 4.17969V7.125H9.01367C9.14909 7.125 9.24219 7.19271 9.29297 7.32812C9.34375 7.44661 9.32682 7.54818 9.24219 7.63281L6.70312 10.1719C6.56771 10.3073 6.43229 10.3073 6.29688 10.1719L3.75781 7.63281C3.67318 7.54818 3.65625 7.44661 3.70703 7.32812C3.75781 7.19271 3.85091 7.125 3.98633 7.125H5.6875V4.17969Z" fill="#1E6DFB"/>
</svg>
