<svg width="64" height="64" viewBox="0 0 64 64" fill="none" xmlns="http://www.w3.org/2000/svg">
<circle cx="32" cy="32" r="32" fill="#6B73FF" fill-opacity="0.2"/>
<g clip-path="url(#clip0)">
<path d="M32 22.4629C25.8861 22.4629 20.3416 25.8079 16.2504 31.241C15.9165 31.6862 15.9165 32.308 16.2504 32.7532C20.3416 38.1929 25.8861 41.5379 32 41.5379C38.1139 41.5379 43.6584 38.1929 47.7496 32.7597C48.0835 32.3146 48.0835 31.6927 47.7496 31.2476C43.6584 25.8079 38.1139 22.4629 32 22.4629ZM32.4386 38.7165C28.3801 38.9718 25.0285 35.6268 25.2838 31.5618C25.4933 28.2103 28.2099 25.4937 31.5614 25.2842C35.6199 25.0289 38.9715 28.3739 38.7162 32.439C38.5002 35.784 35.7836 38.5005 32.4386 38.7165ZM32.2357 35.6138C30.0493 35.7512 28.2426 33.9511 28.3866 31.7647C28.4979 29.958 29.9642 28.4983 31.7709 28.3805C33.9572 28.243 35.7639 30.0431 35.6199 32.2295C35.5021 34.0427 34.0358 35.5025 32.2357 35.6138Z" fill="#6B73FF"/>
</g>
<defs>
<clipPath id="clip0">
<rect width="32" height="32" fill="white" transform="translate(16 16)"/>
</clipPath>
</defs>
</svg>
